<?xml version="1.0" encoding="UTF-8" standalone="no"?>
<svg
   width="31.87977"
   height="30.694811"
   viewBox="0 0 31.87977 30.694811"
   fill="none"
   version="1.1"
   id="svg339"
   xmlns="http://www.w3.org/2000/svg"
   xmlns:svg="http://www.w3.org/2000/svg">
  <path
     d="m 6.845983,0.22216923 c -0.5548,0.099 -1.0904,0.24 -1.6199,0.41 -1.37573,0.44099997 -2.94817,1.57099997 -3.11871,3.00199997 -0.21777,1.827 2.97041,4.66 2.97041,4.66 l -2.0966,10.2099998 c 0.31111,-0.145 0.52903,-0.228 0.57759,-0.2 0.94201,0.544 -0.33285,2.108 -2.09097,2.574 -1.84500001,0.49 -1.84918001,0.653 -0.57788001,3.896 1.04742001,2.672 1.93884001,3.672 4.38306001,4.874 2.8665,1.408 3.3894,1.403 7.0819,-0.061 5.9433,-2.356 6.6409,-2.486 10.2322,-2.064 3.8261,0.449 7.0902,-0.828 8.663,-3.425 0.8522,-1.408 0.8441,-1.969 -0.053,-2.487 -1.7762,-1.026 -1.9636,-3.07 -0.3684,-3.972 1.1538,-0.653 1.2094,-1.054 0.3301,-1.992 -0.6043,-0.645 -1.1603,-2.099 -1.2415,-3.23 -0.2135,-2.9719998 -2.2882,-4.7869998 -6.2851,-5.4899998 l -3.4948,-0.602 0.6702,-0.095 -0.9601,-1.933 c -0.0247,-0.043 -0.0475,-0.091 -0.0731,-0.134 -0.376,-0.632 -0.8604,-1.298 -1.3415,-1.597 -3.3042,-2.05399997 -7.7035,-3.04099997 -11.5869,-2.34399997 z"
     fill="#000000"
     id="path154" />
  <path
     d="m 6.348083,2.7841692 c 1.0316,-0.231 2.6544,-0.127 4.8935,0.328 2.7218,0.554 5.3655,1.379 5.8483,1.823 1.8285,1.683 1.772,4.368 -0.1092,7.6059998 -1.0549,1.815 -1.8415,3.587 -1.7492,3.933 0.0925,0.345 -0.4308,1.335 -1.1735,2.215 -1.6193,1.919 -2.2867,2.121 -4.9509,1.541 -3.6662,-0.798 -4.4314,-2.234 -3.5014,-6.253 0.4593,-1.986 0.6691,-4.1369998 0.4877,-4.8099998 -0.4033,-1.5 0.9338,-2.543 3.4006,-2.66 1.7999,-0.086 1.8014,-0.108 0.0891,-0.873 -0.97,-0.433 -2.066,-0.74 -2.4226,-0.646 -0.3565,0.095 -0.5141,-0.215 -0.3696,-0.692 0.1445,-0.478 -0.0597,-0.784 -0.4647,-0.676 -0.405,0.107 -0.7477,0.833 -0.7439,1.6 0.0056,1.176 -0.0603,1.198 -0.4068,0.195 -0.5143,-1.49 -0.1538,-2.335 1.1726,-2.631 z"
     fill="url(#paint32_radial_1_18)"
     id="path156"
     style="fill:url(#paint32_radial_1_18)" />
  <path
     d="m 21.867083,9.1241692 c 1.0078,-0.224 2.1099,-0.127 3.3204,0.315 2.0576,0.7509998 3.6697,4.4299998 2.4896,5.6749998 -0.3432,0.363 -0.7177,0.29 -0.84,-0.168 -0.1222,-0.459 -0.4449,-0.602 -0.7187,-0.313 -0.2739,0.289 -1.0736,0.311 -1.7829,0.048 -1.0513,-0.39 -1.0349,-0.473 0.1223,-0.414 0.7806,0.04 1.3396,-0.239 1.24,-0.612 -0.3992,-1.493 -1.9025,-1.039 -4.1678,1.256 l -2.3865,2.431 2.7682,-0.028 c 1.5189,-0.016 3.2003,-0.019 3.7535,-0.007 1.2842,0.029 2.552,4.619 1.6845,6.112 -1.2619,2.172 -6.8811,2.67 -9.4003,0.815 -3.1312,-2.305 -3.1659,-5.619 -0.1232,-11.503 0.9739,-1.884 2.1556,-3.0389998 3.5933,-3.5029998 0.1398,-0.045 0.3037,-0.072 0.4476,-0.104 z"
     fill="url(#paint33_radial_1_18)"
     id="path158"
     style="fill:url(#paint33_radial_1_18)" />
  <path
     d="m 2.421913,22.249169 c 0.22603,-0.002 0.53903,0.161 0.89971,0.501 0.50913,0.479 1.58616,0.755 2.43816,0.594 0.852,-0.16 1.309,-0.531 1.0074,-0.815 -0.3014,-0.284 -1.0936,-0.378 -1.7542,-0.202 -0.6606,0.175 -1.06749,0.112 -0.9116,-0.156 0.4221,-0.727 8.419,-0.878 8.6106,-0.161 0.0907,0.339 -0.1833,0.704 -0.6141,0.819 -0.4308,0.114 -1.992,1.256 -3.4741,2.527 -2.775,2.379 -4.1749,3.235 -2.6587,1.598 0.6768,-0.73 0.4834,-0.961 -0.8463,-1.024 -0.9274,-0.044 -2.08179,-0.693 -2.56741,-1.452 -0.67261,-1.052 -0.71731,-1.947 -0.33927,-2.167 0.05675,-0.033 0.1345,-0.061 0.20981,-0.062 z"
     fill="url(#paint34_radial_1_18)"
     id="path160"
     style="fill:url(#paint34_radial_1_18)" />
  <defs
     id="defs337">
    <linearGradient
       id="paint0_linear_1_18"
       x1="68.408302"
       y1="175.298"
       x2="69.217598"
       y2="194.871"
       gradientUnits="userSpaceOnUse"
       gradientTransform="translate(23.267429,-29.171908)">
      <stop
         id="stop162" />
      <stop
         offset="1"
         stop-opacity="0"
         id="stop164" />
    </linearGradient>
    <radialGradient
       id="paint1_radial_1_18"
       cx="0"
       cy="0"
       r="1"
       gradientUnits="userSpaceOnUse"
       gradientTransform="matrix(16.710611,-6.0960079,3.9609418,10.857886,74.7332,18.2654)">
      <stop
         stop-color="#D98C26"
         id="stop167" />
      <stop
         offset="1"
         stop-color="#F9F3D4"
         id="stop169" />
    </radialGradient>
    <radialGradient
       id="paint2_radial_1_18"
       cx="0"
       cy="0"
       r="1"
       gradientUnits="userSpaceOnUse"
       gradientTransform="matrix(7.9714699,-0.22412392,0.15195848,5.4047442,59.4391,18.2002)">
      <stop
         stop-color="#D98C26"
         id="stop172" />
      <stop
         offset="1"
         stop-color="#F9F3D4"
         id="stop174" />
    </radialGradient>
    <radialGradient
       id="paint3_radial_1_18"
       cx="0"
       cy="0"
       r="1"
       gradientUnits="userSpaceOnUse"
       gradientTransform="matrix(6.3868681,-0.95363381,1.2961414,8.6807789,86.8371,26.9346)">
      <stop
         stop-color="#D98C26"
         id="stop177" />
      <stop
         offset="1"
         stop-color="#F9F3D4"
         id="stop179" />
    </radialGradient>
    <radialGradient
       id="paint4_radial_1_18"
       cx="0"
       cy="0"
       r="1"
       gradientUnits="userSpaceOnUse"
       gradientTransform="matrix(7.6987703,-1.8625143,2.0838003,8.6134637,100.862,31.033)">
      <stop
         stop-color="#D98C26"
         id="stop182" />
      <stop
         offset="1"
         stop-color="#F9F3D4"
         id="stop184" />
    </radialGradient>
    <radialGradient
       id="paint5_radial_1_18"
       cx="0"
       cy="0"
       r="1"
       gradientUnits="userSpaceOnUse"
       gradientTransform="matrix(7.0738348,-0.19888128,0.20883402,7.4278349,69.2815,25.3858)">
      <stop
         stop-color="#D98C26"
         id="stop187" />
      <stop
         offset="1"
         stop-color="#F9F3D4"
         id="stop189" />
    </radialGradient>
    <radialGradient
       id="paint6_radial_1_18"
       cx="0"
       cy="0"
       r="1"
       gradientUnits="userSpaceOnUse"
       gradientTransform="matrix(4.2042487,-0.11820344,0.13838445,4.922045,77.3696,27.3193)">
      <stop
         stop-color="#D98C26"
         id="stop192" />
      <stop
         offset="1"
         stop-color="#F9F3D4"
         id="stop194" />
    </radialGradient>
    <radialGradient
       id="paint7_radial_1_18"
       cx="0"
       cy="0"
       r="1"
       gradientUnits="userSpaceOnUse"
       gradientTransform="matrix(14.70105,-0.22683984,0.13278758,8.6057056,35.1075,29.5214)">
      <stop
         stop-color="#D98C26"
         id="stop197" />
      <stop
         offset="1"
         stop-color="#F9F3D4"
         id="stop199" />
    </radialGradient>
    <radialGradient
       id="paint8_radial_1_18"
       cx="0"
       cy="0"
       r="1"
       gradientUnits="userSpaceOnUse"
       gradientTransform="matrix(7.0904381,-0.78726499,1.4940909,13.456408,59.9682,31.7695)">
      <stop
         stop-color="#D98C26"
         id="stop202" />
      <stop
         offset="1"
         stop-color="#F9F3D4"
         id="stop204" />
    </radialGradient>
    <radialGradient
       id="paint9_radial_1_18"
       cx="0"
       cy="0"
       r="1"
       gradientUnits="userSpaceOnUse"
       gradientTransform="matrix(12.786048,-0.35948049,0.36119764,12.847123,109.058,38.7367)">
      <stop
         stop-color="#D98C26"
         id="stop207" />
      <stop
         offset="1"
         stop-color="#F9F3D4"
         id="stop209" />
    </radialGradient>
    <radialGradient
       id="paint10_radial_1_18"
       cx="0"
       cy="0"
       r="1"
       gradientUnits="userSpaceOnUse"
       gradientTransform="matrix(3.5643715,-0.10021314,0.12569571,4.4707334,31.8313,28.1826)">
      <stop
         stop-color="#D98C26"
         id="stop212" />
      <stop
         offset="1"
         stop-color="#F9F3D4"
         id="stop214" />
    </radialGradient>
    <radialGradient
       id="paint11_radial_1_18"
       cx="0"
       cy="0"
       r="1"
       gradientUnits="userSpaceOnUse"
       gradientTransform="matrix(8.0511286,-0.22635796,0.21522907,7.655295,87.47,36.0165)">
      <stop
         stop-color="#D98C26"
         id="stop217" />
      <stop
         offset="1"
         stop-color="#F9F3D4"
         id="stop219" />
    </radialGradient>
    <radialGradient
       id="paint12_radial_1_18"
       cx="0"
       cy="0"
       r="1"
       gradientUnits="userSpaceOnUse"
       gradientTransform="matrix(10.729913,-0.56541067,0.24845065,4.7148985,63.022,35.6793)">
      <stop
         stop-color="#D98C26"
         id="stop222" />
      <stop
         offset="1"
         stop-color="#F9F3D4"
         id="stop224" />
    </radialGradient>
    <radialGradient
       id="paint13_radial_1_18"
       cx="0"
       cy="0"
       r="1"
       gradientUnits="userSpaceOnUse"
       gradientTransform="matrix(3.4151204,-0.0960187,0.14022085,4.9872692,79.6482,30.9576)">
      <stop
         stop-color="#D98C26"
         id="stop227" />
      <stop
         offset="1"
         stop-color="#F9F3D4"
         id="stop229" />
    </radialGradient>
    <radialGradient
       id="paint14_radial_1_18"
       cx="0"
       cy="0"
       r="1"
       gradientUnits="userSpaceOnUse"
       gradientTransform="matrix(8.8503227,-0.2488289,0.30907234,10.993056,118.181,49.6449)">
      <stop
         stop-color="#D98C26"
         id="stop232" />
      <stop
         offset="1"
         stop-color="#F9F3D4"
         id="stop234" />
    </radialGradient>
    <radialGradient
       id="paint15_radial_1_18"
       cx="0"
       cy="0"
       r="1"
       gradientUnits="userSpaceOnUse"
       gradientTransform="matrix(3.848979,-0.10821629,0.07644053,2.7187956,96.3348,36.9145)">
      <stop
         stop-color="#D98C26"
         id="stop237" />
      <stop
         offset="1"
         stop-color="#F9F3D4"
         id="stop239" />
    </radialGradient>
    <radialGradient
       id="paint16_radial_1_18"
       cx="0"
       cy="0"
       r="1"
       gradientUnits="userSpaceOnUse"
       gradientTransform="matrix(12.101203,-1.683904,1.8646737,13.400286,40.4761,42.3545)">
      <stop
         stop-color="#D98C26"
         id="stop242" />
      <stop
         offset="1"
         stop-color="#F9F3D4"
         id="stop244" />
    </radialGradient>
    <radialGradient
       id="paint17_radial_1_18"
       cx="0"
       cy="0"
       r="1"
       gradientUnits="userSpaceOnUse"
       gradientTransform="matrix(2.3523183,-0.78798327,2.4375583,7.2766939,27.4638,38.7303)">
      <stop
         stop-color="#D98C26"
         id="stop247" />
      <stop
         offset="1"
         stop-color="#F9F3D4"
         id="stop249" />
    </radialGradient>
    <radialGradient
       id="paint18_radial_1_18"
       cx="0"
       cy="0"
       r="1"
       gradientUnits="userSpaceOnUse"
       gradientTransform="matrix(1.642271,-0.04617283,0.03910971,1.3910503,51.7004,35.2013)">
      <stop
         stop-color="#D98C26"
         id="stop252" />
      <stop
         offset="1"
         stop-color="#F9F3D4"
         id="stop254" />
    </radialGradient>
    <radialGradient
       id="paint19_radial_1_18"
       cx="0"
       cy="0"
       r="1"
       gradientUnits="userSpaceOnUse"
       gradientTransform="matrix(-0.28076729,-5.4657735,13.072364,-0.67150464,73.76,39.38)">
      <stop
         stop-color="#D98C26"
         id="stop257" />
      <stop
         offset="1"
         stop-color="#F9F3D4"
         id="stop259" />
    </radialGradient>
    <radialGradient
       id="paint20_radial_1_18"
       cx="0"
       cy="0"
       r="1"
       gradientUnits="userSpaceOnUse"
       gradientTransform="matrix(2.4792403,-0.06970399,0.06251472,2.2235314,61.4677,38.6792)">
      <stop
         stop-color="#D98C26"
         id="stop262" />
      <stop
         offset="1"
         stop-color="#F9F3D4"
         id="stop264" />
    </radialGradient>
    <radialGradient
       id="paint21_radial_1_18"
       cx="0"
       cy="0"
       r="1"
       gradientUnits="userSpaceOnUse"
       gradientTransform="matrix(9.2923379,-0.26126275,0.16593933,5.9019677,25.2833,41.1961)">
      <stop
         stop-color="#D98C26"
         id="stop267" />
      <stop
         offset="1"
         stop-color="#F9F3D4"
         id="stop269" />
    </radialGradient>
    <radialGradient
       id="paint22_radial_1_18"
       cx="0"
       cy="0"
       r="1"
       gradientUnits="userSpaceOnUse"
       gradientTransform="matrix(7.6691895,-0.21562106,0.18383725,6.5387062,76.3311,44.7586)">
      <stop
         stop-color="#D98C26"
         id="stop272" />
      <stop
         offset="1"
         stop-color="#F9F3D4"
         id="stop274" />
    </radialGradient>
    <radialGradient
       id="paint23_radial_1_18"
       cx="0"
       cy="0"
       r="1"
       gradientUnits="userSpaceOnUse"
       gradientTransform="matrix(3.7307857,-0.10489452,0.15900952,5.6554951,105.705,47.4716)">
      <stop
         stop-color="#D98C26"
         id="stop277" />
      <stop
         offset="1"
         stop-color="#F9F3D4"
         id="stop279" />
    </radialGradient>
    <radialGradient
       id="paint24_radial_1_18"
       cx="0"
       cy="0"
       r="1"
       gradientUnits="userSpaceOnUse"
       gradientTransform="matrix(4.1164433,-0.11573692,0.07812812,2.7788019,61.4024,43.1722)">
      <stop
         stop-color="#D98C26"
         id="stop282" />
      <stop
         offset="1"
         stop-color="#F9F3D4"
         id="stop284" />
    </radialGradient>
    <radialGradient
       id="paint25_radial_1_18"
       cx="0"
       cy="0"
       r="1"
       gradientUnits="userSpaceOnUse"
       gradientTransform="matrix(3.5901113,-0.10093745,0.07497104,2.6665463,29.831,46.7788)">
      <stop
         stop-color="#D98C26"
         id="stop287" />
      <stop
         offset="1"
         stop-color="#F9F3D4"
         id="stop289" />
    </radialGradient>
    <radialGradient
       id="paint26_radial_1_18"
       cx="0"
       cy="0"
       r="1"
       gradientUnits="userSpaceOnUse"
       gradientTransform="matrix(4.3288794,-0.12170972,0.08339606,2.9661679,19.7131,47.4047)">
      <stop
         stop-color="#D98C26"
         id="stop292" />
      <stop
         offset="1"
         stop-color="#F9F3D4"
         id="stop294" />
    </radialGradient>
    <radialGradient
       id="paint27_radial_1_18"
       cx="0"
       cy="0"
       r="1"
       gradientUnits="userSpaceOnUse"
       gradientTransform="matrix(8.0675424,-0.22680957,0.18267676,6.4977526,124.503,167.993)">
      <stop
         stop-color="#D98C26"
         id="stop297" />
      <stop
         offset="1"
         stop-color="#F9F3D4"
         id="stop299" />
    </radialGradient>
    <linearGradient
       id="paint28_linear_1_18"
       x1="8.58708"
       y1="115.351"
       x2="84.563202"
       y2="113.182"
       gradientUnits="userSpaceOnUse"
       gradientTransform="translate(19.606975,-13.543598)">
      <stop
         stop-color="#F9F9F9"
         id="stop302" />
      <stop
         offset="1"
         stop-color="white"
         id="stop304" />
    </linearGradient>
    <linearGradient
       id="paint29_linear_1_18"
       x1="102.813"
       y1="108.148"
       x2="151.651"
       y2="112.059"
       gradientUnits="userSpaceOnUse">
      <stop
         stop-color="#ECECEC"
         id="stop307" />
      <stop
         offset="1"
         stop-color="#999999"
         id="stop309" />
    </linearGradient>
    <radialGradient
       id="paint30_radial_1_18"
       cx="0"
       cy="0"
       r="1"
       gradientUnits="userSpaceOnUse"
       gradientTransform="matrix(5.7365934,-0.16127665,0.19807414,7.0454763,112.762,181.868)">
      <stop
         stop-color="#D98C26"
         id="stop312" />
      <stop
         offset="1"
         stop-color="#F9F3D4"
         id="stop314" />
    </radialGradient>
    <radialGradient
       id="paint31_radial_1_18"
       cx="0"
       cy="0"
       r="1"
       gradientUnits="userSpaceOnUse"
       gradientTransform="matrix(2.3754413,-0.0667865,0.12589351,4.4777406,121.422,184.465)">
      <stop
         stop-color="#D98C26"
         id="stop317" />
      <stop
         offset="1"
         stop-color="#F9F3D4"
         id="stop319" />
    </radialGradient>
    <radialGradient
       id="paint32_radial_1_18"
       cx="0"
       cy="0"
       r="1"
       gradientUnits="userSpaceOnUse"
       gradientTransform="matrix(6.709459,-0.1886298,0.25218341,8.9700258,11.813283,11.521169)">
      <stop
         stop-color="#D98C26"
         id="stop322" />
      <stop
         offset="1"
         stop-color="#F9F3D4"
         id="stop324" />
    </radialGradient>
    <radialGradient
       id="paint33_radial_1_18"
       cx="0"
       cy="0"
       r="1"
       gradientUnits="userSpaceOnUse"
       gradientTransform="matrix(6.3329577,-0.17804374,0.22970275,8.1704517,21.834783,17.214169)">
      <stop
         stop-color="#D98C26"
         id="stop327" />
      <stop
         offset="1"
         stop-color="#F9F3D4"
         id="stop329" />
    </radialGradient>
    <radialGradient
       id="paint34_radial_1_18"
       cx="0"
       cy="0"
       r="1"
       gradientUnits="userSpaceOnUse"
       gradientTransform="matrix(5.3840825,-0.15137286,0.08657454,3.0793132,7.413183,24.659169)">
      <stop
         stop-color="#D98C26"
         id="stop332" />
      <stop
         offset="1"
         stop-color="#F9F3D4"
         id="stop334" />
    </radialGradient>
  </defs>
</svg>
